# xmcd CD database file generated by OrangeCD 5.2
#
# Track frame offsets:
#	150
#	17140
#	29305
#	45835
#	69765
#	84230
#	101789
#	126070
#	145549
#	159142
#	176473
#	189884
#	218012
#	231764
#	255794
#	279299
#
# Disc length: 3934 seconds
#
# Revision: 0
# Processed by: cddbd v1.5.2PL0 Copyright (c) Steve Scherf et al.
# Submitted via: OrangeCD 5.2
#
DISCID=b30f5c10
DTITLE=Jason Boland and The Stragglers - Live at Billy Bob's in Texas
DYEAR=1900
DGENRE=Country
TTITLE0=Drinking song
TTITLE1=Tennessee whiskey
TTITLE2=Shot full of holes
TTITLE3=Proud souls
TTITLE4=Pearl snaps
TTITLE5=Mexico or crazy
TTITLE6=Somewhere down in Texas
TTITLE7=Telephone romeo
TTITLE8=When I'm stoned
TTITLE9=Fallin' with style
TTITLE10=Ponies
TTITLE11=Mary
TTITLE12=Truckstop diaries
TTITLE13=Song for you
TTITLE14=Big shot rich man
TTITLE15=If I ever get back to Oklahoma
EXTD=
EXTT0=
EXTT1=
EXTT2=
EXTT3=
EXTT4=
EXTT5=
EXTT6=
EXTT7=
EXTT8=
EXTT9=
EXTT10=
EXTT11=
EXTT12=
EXTT13=
EXTT14=
EXTT15=
PLAYORDER=
